<svg width="17" height="16" viewBox="0 0 17 16" fill="none" xmlns="http://www.w3.org/2000/svg">
<g id="Twitter / Negative" clip-path="url(#clip0_7_1569)">
<path id="Vector" d="M5.69945 14.5001C11.7357 14.5001 15.0382 9.49789 15.0382 5.16133C15.0382 5.02071 15.0351 4.87696 15.0288 4.73633C15.6713 4.27173 16.2257 3.69626 16.666 3.03696C16.0677 3.30316 15.4324 3.47701 14.782 3.55258C15.4669 3.14203 15.9797 2.49707 16.2254 1.73727C15.5811 2.11913 14.8764 2.3885 14.1416 2.53383C13.6466 2.0078 12.992 1.6595 12.2791 1.54279C11.5663 1.42608 10.8348 1.54746 10.1978 1.88816C9.56088 2.22885 9.05388 2.7699 8.75525 3.42763C8.45661 4.08537 8.38297 4.82317 8.5457 5.52696C7.24101 5.46149 5.96464 5.12256 4.79934 4.53216C3.63403 3.94175 2.60581 3.11305 1.78133 2.09977C1.36228 2.82225 1.23405 3.67719 1.4227 4.49082C1.61135 5.30445 2.10272 6.01572 2.79695 6.48008C2.27577 6.46354 1.766 6.32321 1.30977 6.07071V6.11133C1.3093 6.86952 1.57141 7.60448 2.05156 8.19127C2.5317 8.77806 3.20023 9.18047 3.94352 9.33008C3.46072 9.46218 2.954 9.48142 2.46258 9.38633C2.67232 10.0384 3.0804 10.6087 3.62986 11.0176C4.17933 11.4266 4.84276 11.6538 5.52758 11.6676C4.36497 12.5808 2.9288 13.0762 1.45039 13.0738C1.18821 13.0734 0.926282 13.0574 0.666016 13.0257C2.16792 13.9893 3.91504 14.501 5.69945 14.5001Z" fill="#6D6E76"/>
</g>
<defs>
<clipPath id="clip0_7_1569">
<rect width="16" height="16" fill="white" transform="translate(0.666016)"/>
</clipPath>
</defs>
</svg>
